#!OML:ASF F:\VICON\USERDATA\INSTALL\rory3\rory3.ASF
:FULLY-SPECIFIED
:DEGREES
2774
root -0.697972 17.0894 8.58155 -719.285 -133.201 722.242
lowerback 4.26281 1.95671 -2.92808
upperback 0.472708 2.48092 1.09419
thorax -2.07585 1.26148 2.61587
lowerneck -14.9517 -2.11016 -14.4919
upperneck -23.9152 -2.24978 10.9096
head -4.59944 -1.3912 6.07658
rclavicle 1.08866e-014 -3.23025e-015
rhumerus 27.4176 -22.343 -26.5443
rradius 88.0764
rwrist 6.28848
rhand -43.8825 4.24829
rfingers 7.12502
rthumb -16.7081 -25.0527
lclavicle 1.08866e-014 -3.23025e-015
lhumerus 7.00778 29.3978 23.2688
lradius 77.6903
lwrist 25.2057
lhand -19.3582 24.2896
lfingers 7.12502
lthumb 6.95934 54.1552
rfemur 0.203761 -3.33481 21.9201
rtibia 31.7296
rfoot -31.7603 -7.45983
rtoes -7.70028
lfemur -29.4667 -1.50668 -12.1529
ltibia 45.8431
lfoot -16.6737 -0.915309
ltoes -20.5509
2775
root -0.7456 17.0755 8.57959 -719.097 -132.897 721.969
lowerback 4.20635 1.92816 -2.95559
upperback 0.29315 2.44393 1.03398
thorax -2.22506 1.24907 2.56998
lowerneck -15.0727 -2.24776 -14.6519
upperneck -23.6201 -2.31752 11.2796
head -4.46127 -1.41397 6.2106
rclavicle 7.83056e-014 -4.84538e-015
rhumerus 29.8629 -23.3719 -26.1874
rradius 86.7232
rwrist 5.85249
rhand -43.8985 4.40473
rfingers 7.12502
rthumb -16.7235 -24.8949
lclavicle 7.83056e-014 -4.84538e-015
lhumerus 7.68255 28.9117 23.298
lradius 78.1229
lwrist 25.4255
lhand -19.8207 24.4613
lfingers 7.12502
lthumb 6.51287 54.3412
rfemur 0.389015 -3.30936 21.6596
rtibia 31.7568
rfoot -32.053 -7.53782
rtoes -7.36363
lfemur -29.106 -1.73576 -12.5283
ltibia 45.8311
lfoot -16.4545 -1.50907
ltoes -19.3684
2776
root -0.795736 17.0595 8.58001 -718.92 -132.617 721.757
lowerback 4.13548 1.97223 -2.85238
upperback 0.115646 2.50899 0.94172
thorax -2.36386 1.28548 2.4115
lowerneck -15.1231 -2.42185 -14.8135
upperneck -23.3995 -2.45286 11.5877
head -4.35082 -1.46763 6.32618
rclavicle -7.07549e-015 5.76476e-015
rhumerus 32.1846 -24.4351 -25.6511
rradius 85.2992
rwrist 5.19334
rhand -43.8278 4.00284
rfingers 7.12502
rthumb -16.6554 -25.3026
lclavicle -7.07549e-015 5.76476e-015
lhumerus 8.62296 28.4905 23.5579
lradius 78.522
lwrist 25.202
lhand -19.8367 24.8398
lfingers 7.12502
lthumb 6.49748 54.7201
rfemur 0.498247 -3.35046 21.4145
rtibia 31.8436
rfoot -32.3333 -7.54155
rtoes -7.13327
lfemur -28.7997 -1.77323 -12.9327
ltibia 45.7032
lfoot -16.322 -2.21191
ltoes -16.86
2777
root -0.847567 17.0488 8.57535 -718.941 -132.415 721.712
lowerback 4.08059 2.11687 -2.66241
upperback -0.0510959 2.71001 0.802031
thorax -2.50194 1.38742 2.14617
lowerneck -14.766 -2.50843 -14.9428
upperneck -23.3621 -2.50385 11.9258
head -4.36478 -1.48438 6.46168
rclavicle -3.71044e-014 -1.39149e-015
rhumerus 34.1493 -25.5706 -25.1362
rradius 83.8084
rwrist 4.47095
rhand -43.7084 3.70221
rfingers 7.12502
rthumb -16.5405 -25.6128
lclavicle -3.71044e-014 -1.39149e-015
lhumerus 9.939 28.0051 23.9796
lradius 78.8687
lwrist 24.831
lhand -19.8069 25.28
lfingers 7.12502
lthumb 6.52622 55.1594
rfemur 0.69269 -3.14782 21.3522
rtibia 31.9448
rfoot -32.7007 -7.73404
rtoes -6.79292
lfemur -28.3968 -1.6399 -13.2164
ltibia 45.4614
lfoot -16.343 -2.92804
ltoes -14.1096
2778
root -0.90371 17.0421 8.56997 -718.908 -132.144 721.575
lowerback 4.06122 2.14941 -2.57473
upperback -0.294918 2.75502 0.66052
thorax -2.73369 1.41424 1.94361
lowerneck -14.3771 -2.4841 -14.9175
upperneck -23.0631 -2.4214 12.1323
head -4.32379 -1.43499 6.51852
rclavicle -1.21116e-013 -4.87022e-015
rhumerus 36.2551 -26.42 -25.039
rradius 82.3218
rwrist 3.86597
rhand -43.7231 3.24494
rfingers 7.12502
rthumb -16.5547 -26.0689
lclavicle -1.21116e-013 -4.87022e-015
lhumerus 10.8542 27.4244 24.025
lradius 79.258
lwrist 24.7651
lhand -19.7793 25.1337
lfingers 7.12502
lthumb 6.55292 55.0123
rfemur 0.930262 -3.0241 21.2215
rtibia 32.0149
rfoot -32.9334 -8.2022
rtoes -7.2111
lfemur -27.9469 -1.6883 -13.5345
ltibia 45.1206
lfoot -16.5184 -3.27356
ltoes -12.0967
2779
root -0.96212 17.0339 8.56659 -718.788 -131.936 721.35
lowerback 4.12251 2.14275 -2.50559
upperback -0.568242 2.7445 0.555764
thorax -3.04098 1.41408 1.78923
lowerneck -14.1988 -2.51592 -15.0233
upperneck -22.5886 -2.38012 12.3428
head -4.19255 -1.39292 6.5879
rclavicle 1.60891e-015 -1.88845e-015
rhumerus 38.6104 -27.1326 -25.1872
rradius 80.6854
rwrist 3.58998
rhand -43.677 3.03143
rfingers 7.12502
rthumb -16.5102 -26.2861
lclavicle 1.60891e-015 -1.88845e-015
lhumerus 11.4284 26.8747 23.9357
lradius 79.7799
lwrist 24.8441
lhand -19.7426 24.9566
lfingers 7.12502
lthumb 6.58829 54.8342
rfemur 1.14827 -3.01681 20.9724
rtibia 32.0652
rfoot -33.0689 -8.5125
rtoes -7.84796
lfemur -27.5545 -1.70188 -13.9311
ltibia 44.6939
lfoot -16.7796 -3.16119
ltoes -11.6364
2780
root -1.02541 17.019 8.56123 -718.823 -131.781 721.466
lowerback 3.98272 2.22752 -2.15484
upperback -0.741198 2.87548 0.463367
thorax -3.12503 1.47515 1.49032
lowerneck -14.2196 -2.61795 -14.9472
upperneck -22.2499 -2.47977 12.3669
head -4.06679 -1.4323 6.56325
rclavicle 4.96775e-014 -5.06901e-015
rhumerus 40.8817 -28.0705 -25.3976
rradius 78.8875
rwrist 3.81228
rhand -43.7235 2.80939
rfingers 7.12502
rthumb -16.555 -26.5044
lclavicle 4.96775e-014 -5.06901e-015
lhumerus 12.3987 26.4258 24.1935
lradius 80.3914
lwrist 25.0689
lhand -20.1271 25.2914
lfingers 7.12502
lthumb 6.21709 55.1801
rfemur 1.27783 -2.90481 21.0111
rtibia 32.1374
rfoot -33.3124 -8.93125
rtoes -8.75901
lfemur -27.2881 -1.61185 -14.07
ltibia 44.2401
lfoot -16.864 -2.83402
ltoes -11.7995
2781
root -1.09106 17.004 8.56068 -718.343 -131.478 721.134
lowerback 3.65775 2.14709 -2.05848
upperback -0.882563 2.77503 0.320472
thorax -3.07171 1.423 1.30621
lowerneck -14.6514 -2.58451 -14.6406
upperneck -21.7231 -2.43888 12.0009
head -3.86186 -1.40178 6.36116
rclavicle -4.85159e-015 -1.78906e-015
rhumerus 43.6267 -28.7813 -26.0805
rradius 76.9939
rwrist 3.88777
rhand -43.8704 2.71412
rfingers 7.12502
rthumb -16.6964 -26.5878
lclavicle -4.85159e-015 -1.78906e-015
lhumerus 13.1011 26.3487 24.2777
lradius 80.9327
lwrist 25.0669
lhand -20.2002 25.5302
lfingers 7.12502
lthumb 6.14655 55.421
rfemur 1.24067 -2.95691 20.6999
rtibia 32.1949
rfoot -33.5331 -9.2221
rtoes -9.40249
lfemur -27.2271 -1.75336 -14.5262
ltibia 43.8481
lfoot -16.758 -2.61921
ltoes -11.3731
2782
root -1.15562 17.0005 8.56324 -717.274 -131.084 720.124
lowerback 3.4276 1.95063 -2.40978
upperback -1.17317 2.49097 0.0961656
thorax -3.23622 1.28942 1.29267
lowerneck -14.8099 -2.48878 -14.6097
upperneck -21.2737 -2.27247 11.9291
head -3.72291 -1.30262 6.31672
rclavicle -1.03104e-013 -3.77691e-015
rhumerus 46.5948 -29.1265 -27.018
rradius 75.0255
rwrist 3.57217
rhand -44.1578 3.03272
rfingers 7.12502
rthumb -16.9731 -26.2457
lclavicle -1.03104e-013 -3.77691e-015
lhumerus 13.3564 26.3586 24.0811
lradius 81.3568
lwrist 24.1548
lhand -19.532 24.9876
lfingers 7.12502
lthumb 6.7916 54.8586
rfemur 1.14735 -3.15805 19.8725
rtibia 32.2373
rfoot -33.7012 -9.36252
rtoes -9.54112
lfemur -27.2751 -1.93938 -15.4707
ltibia 43.5869
lfoot -16.6897 -3.05772
ltoes -9.90896
2783
root -1.21725 17.0024 8.55006 -716.928 -130.744 719.668
lowerback 3.40162 1.95488 -2.57117
upperback -1.34247 2.47962 -0.0921486
thorax -3.39481 1.2872 1.1871
lowerneck -14.8833 -2.58669 -14.6181
upperneck -20.9626 -2.33293 12.1791
head -3.59486 -1.32587 6.38499
rclavicle 3.18987e-014 8.94531e-015
rhumerus 48.828 -29.8614 -27.332
rradius 73.0751
rwrist 3.05822
rhand -44.3695 3.04785
rfingers 7.12502
rthumb -17.1769 -26.2129
lclavicle 3.18987e-014 8.94531e-015
lhumerus 14.2182 26.0763 24.1944
lradius 81.8556
lwrist 23.4345
lhand -19.0303 24.8011
lfingers 7.12502
lthumb 7.27588 54.656
rfemur 1.3785 -2.95461 19.5925
rtibia 32.3271
rfoot -34.0628 -9.6972
rtoes -9.18958
lfemur -27.0465 -1.95052 -15.933
ltibia 43.4269
lfoot -16.8391 -4.05622
ltoes -8.64012
2784
root -1.28123 16.9993 8.53631 -717.046 -130.257 719.81
lowerback 3.27482 2.04632 -2.37765
upperback -1.42292 2.60883 -0.199978
thorax -3.39767 1.34639 0.962572
lowerneck -14.981 -2.7891 -14.3889
upperneck -20.7281 -2.5885 12.2239
head -3.47166 -1.45681 6.3399
rclavicle 4.1459e-014 -8.74653e-015
rhumerus 50.487 -30.9049 -27.1898
rradius 71.2409
rwrist 2.39153
rhand -44.5988 2.71154
rfingers 7.12502
rthumb -17.3976 -26.5299
lclavicle 4.1459e-014 -8.74653e-015
lhumerus 15.56 25.6847 24.7314
lradius 82.4465
lwrist 23.371
lhand -18.8498 24.7708
lfingers 7.12502
lthumb 7.45014 54.6196
rfemur 1.62105 -2.71389 19.7775
rtibia 32.4444
rfoot -34.4013 -10.0534
rtoes -8.87177
lfemur -26.9533 -2.01246 -15.9455
ltibia 43.341
lfoot -16.9942 -4.91064
ltoes -8.95445
2785
root -1.34957 16.9978 8.53343 -716.337 -129.704 719.146
lowerback 2.9842 2.06896 -2.57075
upperback -1.62934 2.62296 -0.45503
thorax -3.44476 1.35487 0.813514
lowerneck -14.8732 -2.96879 -14.2341
upperneck -20.4488 -2.81556 12.2675
head -3.36785 -1.56674 6.30835
rclavicle 1.19625e-013 -1.98785e-016
rhumerus 52.1861 -31.5929 -27.348
rradius 69.4335
rwrist 1.68178
rhand -44.7735 2.43646
rfingers 7.12502
rthumb -17.5657 -26.79
lclavicle 1.19625e-013 -1.98785e-016
lhumerus 16.6497 25.2042 25.239
lradius 83.0536
lwrist 23.1747
lhand -18.731 24.6069
lfingers 7.12502
lthumb 7.56478 54.4516
rfemur 1.64135 -2.9751 19.223
rtibia 32.582
rfoot -34.4514 -10.1543
rtoes -9.34403
lfemur -27.0881 -2.34506 -16.5425
ltibia 43.2489
lfoot -17.0416 -5.11944
ltoes -9.79509
2786
root -1.41468 17.0024 8.52539 -715.593 -129.103 718.388
lowerback 2.72135 1.97267 -2.8914
upperback -1.778 2.47457 -0.666153
thorax -3.45005 1.28482 0.790934
lowerneck -15.1809 -3.17821 -14.2749
upperneck -19.7855 -2.99714 12.4421
head -3.08573 -1.63321 6.33527
rclavicle 1.63221e-014 1.09332e-014
rhumerus 54.258 -32.0765 -27.8263
rradius 67.5555
rwrist 0.844494
rhand -44.7615 1.81064
rfingers 7.12502
rthumb -17.5541 -27.4169
lclavicle 1.63221e-014 1.09332e-014
lhumerus 17.4816 24.8837 25.6182
lradius 83.63
lwrist 22.6972
lhand -18.7089 24.5495
lfingers 7.12502
lthumb 7.58616 54.3935
rfemur 1.66565 -3.13223 18.6929
rtibia 32.8179
rfoot -34.5499 -10.4344
rtoes -10.0041
lfemur -27.1183 -2.76117 -17.1341
ltibia 43.1151
lfoot -17.1037 -5.25557
ltoes -9.6646
2787
root -1.47928 17.0081 8.51228 -715.338 -128.459 718.106
lowerback 2.60564 1.76857 -3.08345
upperback -1.90283 2.19616 -0.603726
thorax -3.5139 1.15279 0.980265
lowerneck -15.4455 -3.3174 -14.5553
upperneck -19.2244 -3.07446 12.5822
head -2.85665 -1.63585 6.40132
rclavicle 3.58775e-014 -1.2921e-014
rhumerus 56.7898 -32.2917 -28.5179
rradius 65.6604
rwrist -0.181051
rhand -44.5851 1.60463
rfingers 7.12502
rthumb -17.3844 -27.6379
lclavicle 3.58775e-014 -1.2921e-014
lhumerus 17.8327 24.7211 25.8714
lradius 84.2308
lwrist 22.3316
lhand -18.682 24.36
lfingers 7.12502
lthumb 7.61213 54.203
rfemur 1.78214 -3.12507 18.5516
rtibia 33.1452
rfoot -34.7329 -10.5141
rtoes -9.60873
lfemur -26.9711 -3.11698 -17.3908
ltibia 42.918
lfoot -17.2802 -5.94677
ltoes -9.62611
